<svg xmlns="http://www.w3.org/2000/svg" viewBox="0 0 440 380"><ellipse cx="220" cy="337" rx="115" ry="14" fill="#27372e" opacity=".09"/><path d="M279 155h24a46 46 0 0 1 0 92h-24" fill="none" stroke="#aa6b53" stroke-width="20"/><path d="M136 138h145v115a54 54 0 0 1-54 54h-37a54 54 0 0 1-54-54z" fill="#c48b70"/><ellipse cx="208" cy="138" rx="73" ry="21" fill="#eac5a9"/><ellipse cx="208" cy="138" rx="61" ry="13" fill="#5e3d2a"/><path d="M175 175v63a35 35 0 0 0 13 28" fill="none" stroke="#deb49a" stroke-width="8" stroke-linecap="round"/><path d="M180 97c-20-24 22-23 0-48m42 46c-20-24 22-23 0-48" fill="none" stroke="#fcf4ec" stroke-width="7" stroke-linecap="round"/></svg>
